<svg width="1800" height="206" viewBox="0 0 1800 206" fill="none" xmlns="http://www.w3.org/2000/svg">
<path d="M1573.15 95.2188C1573.15 104.359 1572.29 111.612 1570.57 116.977C1568.15 125.049 1564.06 132.302 1558.3 138.734C1552.55 145.167 1545.76 150.062 1537.95 153.422C1530.58 156.625 1522.69 158.227 1514.28 158.227C1507.01 158.227 1499.94 156.885 1493.07 154.203C1486.22 151.521 1480.07 147.615 1474.63 142.484C1469.19 137.328 1464.9 131.273 1461.78 124.32C1457.95 116.326 1456.04 107.901 1456.04 99.0469C1456.04 91.9115 1457.27 85.0104 1459.75 78.3438C1462.22 71.651 1465.78 65.5573 1470.41 60.0625C1475.05 54.5677 1480.59 50.0625 1487.05 46.5469C1493.51 43.0312 1500.55 40.8958 1508.18 40.1406C1509.1 40.1406 1510.37 40.0885 1512.01 39.9844C1513.65 39.8802 1514.82 39.8281 1515.53 39.8281C1539.3 39.8281 1556.91 51.5599 1568.34 75.0234H1541.47C1537.95 71.013 1533.86 67.9922 1529.2 65.9609C1524.56 63.9036 1519.8 62.875 1514.9 62.875C1509.04 62.875 1503.38 64.3984 1497.91 67.4453C1492.47 70.4922 1488.07 74.763 1484.71 80.2578C1481.37 85.7266 1479.71 91.8854 1479.71 98.7344V99.0469C1479.71 106.156 1481.4 112.471 1484.79 117.992C1488.2 123.513 1492.66 127.771 1498.18 130.766C1503.73 133.734 1509.51 135.219 1515.53 135.219C1521.99 135.219 1528.04 133.422 1533.69 129.828C1539.37 126.234 1543.67 121.091 1546.58 114.398H1501.78V95.2188H1573.15Z" fill="white"/>
<path d="M1700.83 76H1673.65C1670.13 71.7031 1666.03 68.5 1661.34 66.3906C1656.68 64.2552 1651.93 63.1875 1647.08 63.1875C1641.2 63.1875 1635.59 64.6849 1630.25 67.6797C1624.91 70.6484 1620.59 74.8411 1617.28 80.2578C1614 85.6484 1612.31 91.8073 1612.2 98.7344L1611.89 99.3594C1611.89 104.516 1612.87 109.333 1614.82 113.812C1616.8 118.266 1619.52 122.172 1622.98 125.531C1626.45 128.865 1630.31 131.417 1634.58 133.188C1638.88 134.958 1643.26 135.844 1647.71 135.844C1652.29 135.844 1656.82 134.776 1661.3 132.641C1665.81 130.479 1669.7 127.38 1672.98 123.344H1700.21C1694.14 135.01 1686.99 143.747 1678.76 149.555C1670.53 155.336 1660.08 158.227 1647.4 158.227C1639.87 158.227 1632.7 156.846 1625.87 154.086C1619.08 151.326 1613.05 147.445 1607.79 142.445C1602.53 137.419 1598.32 131.625 1595.17 125.062C1592.02 118.474 1590.12 111.404 1589.47 103.852C1589.47 103.435 1589.42 102.693 1589.31 101.625C1589.21 100.557 1589.15 99.8021 1589.15 99.3594C1589.15 91.5208 1590.61 83.9948 1593.53 76.7812C1596.47 69.5417 1600.6 63.1484 1605.91 57.6016C1611.22 52.0547 1617.45 47.7057 1624.58 44.5547C1631.72 41.4036 1639.32 39.8281 1647.4 39.8281C1655.26 39.8281 1662.83 41.3125 1670.09 44.2812C1677.36 47.224 1683.56 51.5078 1688.69 57.1328C1692.8 61.7682 1696.85 68.0573 1700.83 76Z" fill="white"/>
<path d="M1384.01 42.0938H1361.94V114.398C1361.94 121.612 1362.41 127.628 1363.35 132.445C1364.28 137.263 1366.48 141.703 1369.95 145.766C1376.54 154.073 1386.03 158.227 1398.43 158.227C1402.44 158.227 1406.13 157.797 1409.52 156.938C1412.93 156.104 1416.09 154.776 1419.01 152.953C1421.95 151.104 1424.69 148.708 1427.21 145.766C1430.68 141.755 1432.88 137.328 1433.82 132.484C1434.75 127.641 1435.22 121.612 1435.22 114.398V42.0938H1413.11V107.68C1413.11 112.549 1412.85 116.898 1412.33 120.727C1411.81 124.555 1410.48 127.927 1408.35 130.844C1406.21 133.76 1403.01 135.219 1398.74 135.219L1398.43 134.867L1397.76 135.219C1393.57 135.219 1390.46 133.773 1388.43 130.883C1386.42 127.966 1385.18 124.633 1384.71 120.883C1384.25 117.133 1384.01 112.732 1384.01 107.68V42.0938Z" fill="white"/>
<path fill-rule="evenodd" clip-rule="evenodd" d="M1191.95 112.484C1191.95 106.26 1193.16 100.427 1195.59 94.9844C1198.03 89.5417 1201.41 84.763 1205.7 80.6484C1210 76.5339 1214.91 73.3438 1220.43 71.0781C1225.98 68.8125 1231.74 67.6797 1237.73 67.6797C1241.15 67.6797 1243.59 67.7839 1245.08 67.9922C1251.85 69.2682 1258.06 72.1198 1263.71 76.5469C1269.36 80.9479 1273.8 86.3906 1277.03 92.875C1280.26 99.3333 1281.88 106.078 1281.88 113.109V117.289C1281.15 124.919 1278.67 131.872 1274.45 138.148C1270.26 144.398 1264.83 149.307 1258.16 152.875C1251.5 156.443 1244.36 158.227 1236.76 158.227C1228.58 158.227 1221.04 156.169 1214.14 152.055C1207.24 147.914 1201.81 142.341 1197.85 135.336C1193.92 128.305 1191.95 120.688 1191.95 112.484ZM1212.46 112.484L1212.11 113.422C1212.11 118.604 1213.24 123.096 1215.51 126.898C1217.77 130.701 1220.73 133.565 1224.38 135.492C1228.02 137.419 1231.94 138.383 1236.13 138.383C1240.3 138.383 1244.3 137.367 1248.12 135.336C1251.98 133.305 1255.1 130.31 1257.5 126.352C1259.9 122.393 1261.09 117.667 1261.09 112.172C1261.09 106.964 1259.92 102.497 1257.58 98.7734C1255.23 95.0495 1252.2 92.25 1248.48 90.375C1244.78 88.474 1240.87 87.5234 1236.76 87.5234C1232.64 87.5234 1228.72 88.474 1225 90.375C1221.28 92.276 1218.26 95.1276 1215.94 98.9297C1213.62 102.706 1212.46 107.224 1212.46 112.484Z" fill="white"/>
<path fill-rule="evenodd" clip-rule="evenodd" d="M1127.27 138.734C1116.52 137.198 1110.12 130.688 1108.09 119.203H1176.88V115.023C1176.88 107.732 1175.92 101.443 1173.99 96.1562C1172.64 92.5104 1170.75 89.0599 1168.33 85.8047C1165.9 82.5495 1163.05 79.6589 1159.77 77.1328C1156.52 74.6068 1152.94 72.5234 1149.03 70.8828C1143.82 68.7474 1138.17 67.6797 1132.08 67.6797C1124.81 67.6797 1117.9 69.4766 1111.33 73.0703C1104.77 76.6641 1099.38 81.599 1095.16 87.875C1090.97 94.151 1088.55 101.078 1087.9 108.656C1087.9 109.047 1087.84 109.776 1087.74 110.844C1087.64 111.911 1087.58 112.667 1087.58 113.109C1087.58 121.156 1089.6 128.656 1093.64 135.609C1097.68 142.536 1103.16 148.044 1110.08 152.133C1117.04 156.195 1124.58 158.227 1132.7 158.227C1142.44 158.227 1150.8 155.609 1157.78 150.375C1164.76 145.115 1170.16 137.81 1173.99 128.461H1152.55C1150.36 131.924 1147.47 134.607 1143.87 136.508C1140.28 138.409 1136.45 139.359 1132.39 139.359C1131.11 139.359 1129.41 139.151 1127.27 138.734ZM1146.33 90.2969C1150.76 93.4219 1153.9 97.8359 1155.75 103.539H1108.72C1110.41 97.8359 1113.44 93.4219 1117.82 90.2969C1122.22 87.1719 1126.97 85.6094 1132.08 85.6094C1137.15 85.6094 1141.91 87.1719 1146.33 90.2969Z" fill="white"/>
<path fill-rule="evenodd" clip-rule="evenodd" d="M1047.9 76.9766V42.0938H1067.4V156H1047.9V148.656C1039.49 154.828 1030.64 157.914 1021.34 157.914C1018.14 157.914 1015.68 157.81 1013.96 157.602C1007 156.56 1000.69 153.852 995.012 149.477C989.335 145.102 984.882 139.672 981.653 133.188C978.45 126.677 976.848 119.88 976.848 112.797C976.848 106.391 978.033 100.401 980.403 94.8281C982.773 89.2292 986.028 84.3984 990.169 80.3359C994.335 76.2734 999.049 73.1484 1004.31 70.9609C1009.6 68.7734 1015.05 67.6797 1020.68 67.6797C1030.78 67.6797 1039.86 70.7786 1047.9 76.9766ZM1047.24 113.422C1047.24 108.161 1046.04 103.617 1043.65 99.7891C1041.25 95.9349 1038.14 93.0312 1034.31 91.0781C1030.48 89.125 1026.47 88.1484 1022.28 88.1484C1018.45 88.1484 1014.73 89.0078 1011.11 90.7266C1007.49 92.4193 1004.47 94.9583 1002.04 98.3438C999.622 101.703 998.15 105.779 997.63 110.57C997.63 110.857 997.578 111.378 997.473 112.133C997.369 112.888 997.317 113.435 997.317 113.773C997.317 117.003 997.981 120.102 999.309 123.07C1000.66 126.039 1002.53 128.682 1004.9 131C1007.29 133.292 1010.04 135.102 1013.14 136.43C1016.24 137.732 1019.39 138.383 1022.59 138.383C1027.1 138.279 1031.21 137.094 1034.93 134.828C1038.68 132.562 1041.64 129.555 1043.8 125.805C1045.99 122.029 1047.13 117.901 1047.24 113.422Z" fill="white"/>
<path d="M935.566 69.9062V156H954.745V69.9062H935.566Z" fill="white"/>
<path d="M935.566 61.2734H954.745V42.0938H935.566V61.2734Z" fill="white"/>
<path d="M882.056 156H866.353L825.728 42.0938H849.713L874.361 118.227L899.322 42.0938H922.994L882.056 156Z" fill="white"/>
<path d="M745.975 93.2656C749.803 89.4375 755.142 87.5234 761.991 87.5234V68.6562C756.912 68.9688 752.72 69.9714 749.412 71.6641C746.131 73.3307 742.85 76.0521 739.569 79.8281V69.9062H721.014V156H740.858V112.172C740.858 111.938 740.806 111.612 740.702 111.195C740.597 110.779 740.545 110.466 740.545 110.258C740.545 102.315 742.355 96.651 745.975 93.2656Z" fill="white"/>
<path fill-rule="evenodd" clip-rule="evenodd" d="M632.661 119.203C634.692 130.688 641.085 137.198 651.841 138.734C653.976 139.151 655.682 139.359 656.958 139.359C661.02 139.359 664.848 138.409 668.442 136.508C672.036 134.607 674.927 131.924 677.114 128.461H698.559C694.731 137.81 689.328 145.115 682.348 150.375C675.369 155.609 667.01 158.227 657.27 158.227C649.145 158.227 641.606 156.195 634.653 152.133C627.726 148.044 622.244 142.536 618.208 135.609C614.171 128.656 612.153 121.156 612.153 113.109C612.153 112.667 612.205 111.911 612.309 110.844C612.414 109.776 612.466 109.047 612.466 108.656C613.117 101.078 615.539 94.151 619.731 87.875C623.95 81.599 629.341 76.6641 635.903 73.0703C642.466 69.4766 649.38 67.6797 656.645 67.6797C662.739 67.6797 668.39 68.7474 673.598 70.8828C677.505 72.5234 681.085 74.6068 684.341 77.1328C687.622 79.6589 690.473 82.5495 692.895 85.8047C695.317 89.0599 697.205 92.5104 698.559 96.1562C700.486 101.443 701.45 107.732 701.45 115.023V119.203H632.661ZM680.317 103.539C678.468 97.8359 675.33 93.4219 670.903 90.2969C666.476 87.1719 661.723 85.6094 656.645 85.6094C651.541 85.6094 646.789 87.1719 642.388 90.2969C638.013 93.4219 634.979 97.8359 633.286 103.539H680.317Z" fill="white"/>
<path fill-rule="evenodd" clip-rule="evenodd" d="M523.8 183.852V148.969C531.691 154.932 540.115 157.914 549.073 157.914H554.542C562.016 157.315 568.839 154.919 575.011 150.727C581.209 146.508 586.066 141.078 589.581 134.438C593.097 127.771 594.855 120.661 594.855 113.109L594.542 112.797C594.542 106.443 593.37 100.544 591.027 95.1016C588.709 89.6328 585.493 84.8672 581.378 80.8047C577.29 76.7161 572.628 73.5651 567.394 71.3516C562.159 69.112 556.704 67.9922 551.027 67.9922C541.261 67.9922 532.185 71.0911 523.8 77.2891V69.9062H504.308V183.852H523.8ZM527.823 125.219C525.792 121.286 524.777 117.042 524.777 112.484C524.777 107.276 525.909 102.81 528.175 99.0859C530.467 95.362 533.448 92.5625 537.12 90.6875C540.792 88.7865 544.672 87.8359 548.761 87.8359C553.006 87.8359 557.055 88.7995 560.909 90.7266C564.764 92.6536 567.915 95.5182 570.362 99.3203C572.81 103.122 574.034 107.615 574.034 112.797C574.034 117.224 572.889 121.443 570.597 125.453C568.305 129.438 565.232 132.654 561.378 135.102C557.55 137.523 553.448 138.734 549.073 138.734L548.761 138.383C544.204 138.279 540.089 137.042 536.417 134.672C532.745 132.276 529.881 129.125 527.823 125.219Z" fill="white"/>
<path d="M460.486 156V146.391C454.184 154.281 446.397 158.227 437.127 158.227C434.991 158.227 431.788 157.81 427.517 156.977C419.288 154.867 413.39 150.453 409.822 143.734C406.254 137.016 404.47 128.943 404.47 119.516V69.9062H424.314V108.305C424.314 117.628 425.356 125.089 427.439 130.688C429.548 136.26 434.262 139.047 441.58 139.047C441.788 139.047 442.244 138.995 442.947 138.891C443.65 138.786 444.158 138.734 444.47 138.734C449.418 138.109 453.077 136.182 455.447 132.953C457.843 129.698 459.327 125.987 459.9 121.82C460.499 117.654 460.798 112.732 460.798 107.055V69.9062H480.642V156H460.486Z" fill="white"/>
<path d="M334.047 120.492H313.578C313.682 127.732 315.193 134.229 318.109 139.984C321.026 145.74 325.01 150.219 330.062 153.422C335.141 156.625 340.844 158.227 347.172 158.227C351.469 158.227 355.844 157.589 360.297 156.312C365.01 154.776 369.138 152.068 372.68 148.188C376.247 144.281 378.969 139.776 380.844 134.672C382.719 129.568 383.656 124.411 383.656 119.203C383.656 114.229 382.719 109.529 380.844 105.102C378.995 100.674 376.299 97.1589 372.758 94.5547C369.659 92.5495 365.622 90.7396 360.648 89.125C355.674 87.5104 351.391 86.0911 347.797 84.8672C344.229 83.6432 341.56 82.0677 339.789 80.1406C337.654 78.0052 336.586 75.349 336.586 72.1719C336.586 68.7604 337.654 65.987 339.789 63.8516C341.977 61.0651 344.971 59.6719 348.773 59.6719C351.898 59.6719 354.698 60.8438 357.172 63.1875C359.672 65.5312 360.922 68.7344 360.922 72.7969H380.766C380.297 68.0573 379.451 63.7734 378.227 59.9453C377.029 56.0911 375.167 52.6276 372.641 49.5547C370.115 46.4818 366.846 44.099 362.836 42.4062C358.93 40.8958 354.451 40.1406 349.398 40.1406C345.023 40.1406 340.844 40.8958 336.859 42.4062C332.901 43.9167 329.503 46.1562 326.664 49.125C323.513 52.3021 321.065 56.1042 319.32 60.5312C317.602 64.9323 316.742 69.3464 316.742 73.7734C316.742 78.2526 317.641 82.6536 319.438 86.9766C321.234 91.2734 323.891 95.0365 327.406 98.2656C330.922 101.495 335.154 103.891 340.102 105.453C342.654 106.104 345.023 106.716 347.211 107.289C349.424 107.836 351.573 108.578 353.656 109.516C355.74 110.427 357.497 111.677 358.93 113.266C360.388 114.828 361.26 116.807 361.547 119.203C361.547 119.646 361.599 120.362 361.703 121.352C361.833 122.315 361.898 123.096 361.898 123.695C361.898 128.148 360.714 131.56 358.344 133.93C355.583 136.69 352.068 138.07 347.797 138.07C345.271 138.07 342.706 137.328 340.102 135.844C337.68 134.411 336.065 132.419 335.258 129.867C334.451 127.315 334.047 124.19 334.047 120.492Z" fill="white"/>
<path fill-rule="evenodd" clip-rule="evenodd" d="M236.751 52.808C254.75 70.8309 255.636 101.423 255.636 112.358C255.636 158.034 235.928 186.499 202.303 200.596C189.788 205.842 169.397 205.842 169.397 205.842C169.397 205.842 150.7 205.842 135.02 199.673C104.915 186.268 83.8912 156.065 83.8912 120.954C83.8912 91.457 98.1023 75.3802 112.202 59.4292C126.083 43.7259 139.856 28.1445 139.856 0C186.905 0 224.059 60.0301 224.059 85.4063C230.894 78.5621 236.751 66.0558 236.751 52.808ZM166.282 85.1294C158.392 79.0851 147.003 84.7187 147.003 94.6665L147.003 142.396C147.003 152.344 158.392 157.977 166.282 151.933L197.437 128.068C203.711 123.262 203.711 113.8 197.437 108.994L166.282 85.1294Z" fill="white"/>
</svg>
