<svg version="1.0" preserveAspectRatio="xMidYMid meet" height="1080" viewBox="0 0 810 809.999993" zoomAndPan="magnify" width="1080" xmlns:xlink="http://www.w3.org/1999/xlink" xmlns="http://www.w3.org/2000/svg"><path fill-rule="evenodd" fill-opacity="1" d="M 551.046875 468.453125 C 539.039062 477.21875 534.035156 492.609375 538.609375 506.855469 L 608.699219 722.601562 L 425.160156 589.238281 C 413.058594 580.472656 396.859375 580.472656 384.804688 589.238281 L 201.269531 722.601562 L 271.40625 506.761719 C 275.980469 492.609375 270.976562 477.21875 258.921875 468.453125 L 75.335938 335.089844 L 302.230469 335.089844 C 317.144531 335.089844 330.296875 325.511719 334.871094 311.359375 L 405.007812 95.566406 L 475.097656 311.3125 C 475.648438 313.03125 476.328125 314.691406 477.144531 316.300781 C 477.957031 317.910156 478.890625 319.445312 479.949219 320.90625 C 481.003906 322.371094 482.167969 323.738281 483.441406 325.015625 C 484.714844 326.292969 486.078125 327.464844 487.535156 328.523438 C 488.992188 329.585938 490.527344 330.527344 492.132812 331.347656 C 493.738281 332.167969 495.398438 332.855469 497.113281 333.414062 C 498.828125 333.96875 500.578125 334.390625 502.359375 334.671875 C 504.140625 334.953125 505.929688 335.089844 507.734375 335.089844 L 734.675781 335.089844 Z M 808.292969 311.171875 C 803.667969 296.972656 790.566406 287.441406 775.652344 287.441406 L 517.40625 287.441406 L 437.644531 41.867188 C 433.023438 27.671875 419.921875 18.140625 405.007812 18.140625 C 390.09375 18.140625 376.941406 27.671875 372.367188 41.867188 L 292.558594 287.441406 L 34.3125 287.441406 C 19.398438 287.441406 6.296875 296.972656 1.675781 311.171875 C -2.898438 325.367188 2.101562 340.757812 14.15625 349.527344 L 223.089844 501.28125 L 143.234375 746.902344 C 138.660156 761.101562 143.664062 776.492188 155.765625 785.257812 C 161.769531 789.640625 168.867188 791.832031 175.871094 791.832031 C 182.972656 791.832031 190.070312 789.640625 196.074219 785.210938 L 405.007812 633.453125 L 613.84375 785.210938 C 625.898438 794.023438 642.144531 794.023438 654.25 785.257812 C 666.304688 776.492188 671.304688 761.101562 666.730469 746.855469 L 586.875 501.28125 L 795.808594 349.527344 C 807.910156 340.757812 812.914062 325.367188 808.292969 311.171875 Z M 808.292969 311.171875" fill="#ffffff"></path></svg>