<svg version="1.0" preserveAspectRatio="xMidYMid meet" height="1080" viewBox="0 0 810 809.999993" zoomAndPan="magnify" width="1080" xmlns:xlink="http://www.w3.org/1999/xlink" xmlns="http://www.w3.org/2000/svg"><path fill-rule="nonzero" fill-opacity="1" d="M 197.4375 290.460938 C 197.4375 318.9375 220.851562 342.351562 249.328125 342.351562 C 277.804688 342.351562 301.21875 318.9375 301.21875 290.460938 C 301.21875 261.984375 277.804688 238.570312 249.328125 238.570312 C 220.851562 238.570312 197.4375 261.984375 197.4375 290.460938 Z M 405 625.21875 C 574.59375 625.21875 610.03125 471.445312 610.03125 471.445312 L 199.96875 471.445312 C 199.96875 471.445312 235.40625 625.21875 405 625.21875 Z M 405 625.21875" fill="#ffffff"></path><path fill-rule="nonzero" fill-opacity="1" d="M 405 799.242188 C 187.945312 799.242188 11.390625 622.054688 11.390625 405 C 11.390625 187.945312 187.945312 11.390625 405 11.390625 C 622.054688 11.390625 799.242188 187.945312 799.242188 405.632812 C 799.242188 623.320312 622.054688 799.242188 405 799.242188 Z M 405 53.789062 C 211.359375 53.789062 53.789062 211.359375 53.789062 405 C 53.789062 598.640625 211.359375 756.210938 405 756.210938 C 598.640625 756.210938 756.210938 598.640625 756.210938 405 C 756.210938 211.359375 598.640625 53.789062 405 53.789062 Z M 405 53.789062" fill="#ffffff"></path><path fill-rule="nonzero" fill-opacity="1" d="M 508.78125 290.460938 C 508.78125 318.9375 532.195312 342.351562 560.671875 342.351562 C 589.148438 342.351562 612.5625 318.9375 612.5625 290.460938 C 612.5625 261.984375 589.148438 238.570312 560.671875 238.570312 C 532.195312 238.570312 508.78125 261.984375 508.78125 290.460938 Z M 508.78125 290.460938" fill="#ffffff"></path></svg>