<svg version="1.0" preserveAspectRatio="xMidYMid meet" height="1080" viewBox="0 0 810 809.999993" zoomAndPan="magnify" width="1080" xmlns:xlink="http://www.w3.org/1999/xlink" xmlns="http://www.w3.org/2000/svg"><path fill-rule="nonzero" fill-opacity="1" d="M 457.765625 439.855469 C 453.054688 446.96875 446.957031 453.054688 439.855469 457.765625 L 539.246094 557.152344 C 544.195312 562.101562 552.191406 562.101562 557.140625 557.140625 C 562.089844 552.191406 562.089844 544.195312 557.140625 539.246094 Z M 457.765625 439.855469" fill="#ffffff"></path><path fill-rule="nonzero" fill-opacity="1" d="M 417.65625 342.996094 L 417.65625 177.1875 C 417.65625 170.1875 412 164.53125 405 164.53125 C 398 164.53125 392.34375 170.1875 392.34375 177.1875 L 392.34375 342.996094 C 396.433594 342.160156 400.660156 341.71875 405 341.71875 C 409.339844 341.71875 413.566406 342.160156 417.65625 342.996094 Z M 417.65625 342.996094" fill="#ffffff"></path><path fill-rule="nonzero" fill-opacity="1" d="M 405 367.03125 C 384.027344 367.03125 367.03125 384.027344 367.03125 405 C 367.03125 425.972656 384.027344 442.96875 405 442.96875 C 425.972656 442.96875 442.96875 425.972656 442.96875 405 C 442.96875 384.027344 425.972656 367.03125 405 367.03125 Z M 405 417.65625 C 398 417.65625 392.34375 412 392.34375 405 C 392.34375 398 398 392.34375 405 392.34375 C 412 392.34375 417.65625 398 417.65625 405 C 417.65625 412 412 417.65625 405 417.65625 Z M 405 417.65625" fill="#ffffff"></path><path fill-rule="nonzero" fill-opacity="1" d="M 683.4375 405 C 683.4375 398 689.09375 392.34375 696.09375 392.34375 L 733.746094 392.34375 C 730.671875 311.027344 698.117188 237.28125 646.429688 181.476562 L 619.789062 208.105469 C 614.839844 213.054688 606.84375 213.054688 601.894531 208.105469 C 596.945312 203.15625 596.945312 195.160156 601.894531 190.210938 L 628.523438 163.582031 C 572.707031 111.882812 498.960938 79.34375 417.644531 76.253906 L 417.644531 113.90625 C 417.644531 120.90625 411.984375 126.5625 404.988281 126.5625 C 397.988281 126.5625 392.332031 120.90625 392.332031 113.90625 L 392.332031 76.253906 C 311.015625 79.328125 237.265625 111.882812 181.464844 163.582031 L 208.09375 190.210938 C 213.042969 195.160156 213.042969 203.144531 208.09375 208.105469 C 203.144531 213.054688 195.148438 213.054688 190.199219 208.105469 L 163.570312 181.476562 C 111.882812 237.304688 79.34375 311.050781 76.253906 392.367188 L 113.894531 392.367188 C 120.890625 392.367188 126.539062 398.015625 126.550781 405.023438 C 126.550781 412.011719 120.890625 417.667969 113.894531 417.679688 L 76.253906 417.679688 C 79.34375 498.996094 111.894531 572.734375 163.582031 628.535156 L 190.210938 601.90625 C 195.160156 596.957031 203.132812 596.957031 208.105469 601.90625 C 213.042969 606.84375 213.042969 614.839844 208.105469 619.800781 L 181.476562 646.429688 C 237.28125 698.117188 311.015625 730.65625 392.332031 733.734375 L 392.34375 696.09375 C 392.34375 689.09375 397.988281 683.449219 405 683.4375 C 411.972656 683.4375 417.632812 689.09375 417.65625 696.09375 L 417.644531 733.734375 C 498.960938 730.65625 572.695312 698.105469 628.496094 646.40625 L 601.867188 619.777344 C 596.917969 614.816406 596.917969 606.828125 601.867188 601.867188 C 606.804688 596.933594 614.800781 596.933594 619.777344 601.867188 L 646.394531 628.496094 C 698.09375 572.695312 730.632812 498.960938 733.707031 417.644531 L 696.09375 417.644531 C 689.09375 417.65625 683.4375 412 683.4375 405 Z M 575.035156 575.035156 C 560.203125 589.871094 536.183594 589.882812 521.347656 575.050781 L 413.707031 467.40625 C 410.835938 467.800781 407.972656 468.28125 405 468.28125 C 370.042969 468.28125 341.71875 439.957031 341.71875 405 C 341.71875 384.359375 351.742188 366.222656 367.03125 354.652344 L 367.03125 177.1875 C 367.03125 156.214844 384.027344 139.21875 405 139.21875 C 425.972656 139.21875 442.96875 156.214844 442.96875 177.1875 L 442.96875 354.652344 C 458.257812 366.207031 468.28125 384.359375 468.28125 405 C 468.28125 407.988281 467.800781 410.835938 467.40625 413.707031 L 575.035156 521.335938 C 589.855469 536.167969 589.855469 560.203125 575.035156 575.035156 Z M 575.035156 575.035156" fill="#ffffff"></path><path fill-rule="nonzero" fill-opacity="1" d="M 405 0 C 181.324219 0 0 181.324219 0 405 C 0 628.675781 181.324219 810 405 810 C 628.675781 810 810 628.675781 810 405 C 810 181.324219 628.675781 0 405 0 Z M 405 759.375 C 209.285156 759.375 50.625 600.714844 50.625 405 C 50.625 209.285156 209.285156 50.625 405 50.625 C 600.714844 50.625 759.375 209.285156 759.375 405 C 759.375 600.714844 600.714844 759.375 405 759.375 Z M 405 759.375" fill="#ffffff"></path></svg>